<svg width="1417" height="175" fill="none" xmlns="http://www.w3.org/2000/svg"><path d="M6 161h491c13.255 0 24-10.745 24-24V30c0-13.255 10.745-24 24-24h2c13.255 0 24 10.745 24 24v107c0 13.255 10.745 24 24 24h544c13.25 0 24-10.745 24-24V30c0-13.255 10.75-24 24-24h2c13.25 0 24 10.745 24 24v107c0 13.255 10.75 24 24 24h174" stroke="#000" stroke-opacity=".1" stroke-width="12" stroke-linecap="round" stroke-linejoin="round"/><path d="M67 149l12 12-12 12M32 161h47M510 94l12-12 12 12M522 122V82M1151 94l12-12 12 12M1163 122V82M560 86l12 12 12-12M572 58v40M1201 86l12 12 12-12M1213 58v40M393 149l12 12-12 12M358 161h47M719 149l12 12-12 12M684 161h47M1045 149l12 12-12 12M1010 161h47M1371 149l12 12-12 12M1336 161h47" stroke="#484A4A" stroke-width="4" stroke-linecap="round" stroke-linejoin="round"/></svg>